<svg width="144" height="144" viewBox="0 0 144 144" fill="none" xmlns="http://www.w3.org/2000/svg">
  <g clip-path="url(#clip0)">
    <rect width="144" height="144" fill="#FF0000"/>
    <circle cx="20" cy="130" r="52.3" fill="#CC0000"/>
    <circle cx="20" cy="130" r="47.7" fill="#FF0000"/>
    <polygon points="1.8,156.1 46.1,128.9 1.8,103.9" fill="#CC0000"/>
    <path fill-rule="evenodd" clip-rule="evenodd" d="M144 0H76C47.8 0 25 22.8 25 51V144H144V0Z" fill="black" fill-opacity="0.10"/>
    <path d="M 33,84 L 33,64 Q 33,50 47,50 L 87,50" stroke="white" stroke-width="6" stroke-linecap="round" stroke-linejoin="round" fill="none"/>
    <polyline points="87,40 97,50 87,60" stroke="white" stroke-width="6" stroke-linecap="round" stroke-linejoin="round" fill="none"/>
    <path d="M 111,60 L 111,80 Q 111,94 97,94 L 57,94" stroke="white" stroke-width="6" stroke-linecap="round" stroke-linejoin="round" fill="none"/>
    <polyline points="57,84 47,94 57,104" stroke="white" stroke-width="6" stroke-linecap="round" stroke-linejoin="round" fill="none"/>

    <text x="72" y="82" text-anchor="middle" font-family="Arial, sans-serif" font-size="30" font-weight="700" fill="white">1</text>
  </g>
  <defs><clipPath id="clip0"><rect width="144" height="144" fill="white"/></clipPath></defs>
</svg>
