<svg width="144" height="144" viewBox="0 0 144 144" fill="none" xmlns="http://www.w3.org/2000/svg">
  <g clip-path="url(#clip0)">
    <rect width="144" height="144" fill="#FF0000"/>
    <circle cx="20" cy="130" r="52.3" fill="#CC0000"/>
    <circle cx="20" cy="130" r="47.7" fill="#FF0000"/>
    <polygon points="1.8,156.1 46.1,128.9 1.8,103.9" fill="#CC0000"/>
    <path fill-rule="evenodd" clip-rule="evenodd" d="M144 0H76C47.8 0 25 22.8 25 51V144H144V0Z" fill="black" fill-opacity="0.10"/>
    <g transform="translate(72,72) scale(1.3) translate(-72,-72)">
      <path d="M71.1213 42.8787C71.6839 43.4414 72 44.2044 72 45.0001V99.0001C72 99.7957 71.6839 100.559 71.1213 101.121C70.5587 101.684 69.7957 102 69 102H68.82C68.4036 102.003 67.9912 101.919 67.609 101.754C67.2268 101.588 66.8831 101.345 66.6 101.04L53.76 87.0001H45C44.2044 87.0001 43.4413 86.684 42.8787 86.1214C42.3161 85.5588 42 84.7957 42 84.0001V60.0001C42 59.2044 42.3161 58.4414 42.8787 57.8787C43.4413 57.3161 44.2044 57.0001 45 57.0001H53.76L66.6 42.9601C66.8831 42.6547 67.2268 42.4117 67.609 42.2464C67.9912 42.0812 68.4036 41.9973 68.82 42.0001H69C69.7957 42.0001 70.5587 42.3161 71.1213 42.8787Z" fill="white"/>
      <path d="M78 95.4901C78 97.2601 79.56 98.6701 81.3 98.2501C87.1934 96.8312 92.4379 93.4705 96.1892 88.7089C99.9405 83.9473 101.98 78.0619 101.98 72.0001C101.98 65.9383 99.9405 60.0528 96.1892 55.2912C92.4379 50.5296 87.1934 47.1689 81.3 45.7501C79.56 45.3301 78 46.7101 78 48.5101V48.6001C78.0193 49.3325 78.2796 50.0382 78.7406 50.6077C79.2016 51.1772 79.8376 51.5787 80.55 51.7501C84.986 52.9685 88.8992 55.6099 91.6882 59.2683C94.4773 62.9267 95.9879 67.3998 95.9879 72.0001C95.9879 76.6004 94.4773 81.0734 91.6882 84.7318C88.8992 88.3902 84.986 91.0316 80.55 92.2501C79.11 92.6401 78 93.9001 78 95.4001V95.4901Z" fill="white"/>
      <path d="M78 83.0401C78 84.9301 79.77 86.3701 81.48 85.5301C84.0323 84.3084 86.187 82.3898 87.6953 79.9957C89.2036 77.6016 90.004 74.8297 90.004 72.0001C90.004 69.1705 89.2036 66.3986 87.6953 64.0045C86.187 61.6104 84.0323 59.6917 81.48 58.4701C79.77 57.6601 78 59.0701 78 60.9601V61.3801C78 62.6401 78.84 63.7501 79.89 64.4401C81.1531 65.256 82.1917 66.3753 82.9108 67.696C83.63 69.0166 84.0067 70.4963 84.0067 72.0001C84.0067 73.5038 83.63 74.9835 82.9108 76.3042C82.1917 77.6248 81.1531 78.7442 79.89 79.5601C78.84 80.2201 78 81.3301 78 82.6201V83.0401Z" fill="white"/>
    </g>
  </g>
  <defs><clipPath id="clip0"><rect width="144" height="144" fill="white"/></clipPath></defs>
</svg>
